<svg xmlns="http://www.w3.org/2000/svg" viewBox="0 0 620 260" width="620" height="260"><defs><marker id="arrow8b929b" viewBox="0 0 10 10" refX="9" refY="5" markerWidth="5" markerHeight="5" orient="auto-start-reverse"><path d="M 0 1 L 9 5 L 0 9 z" fill="#8b929b" /></marker></defs><rect x="0" y="0" width="620" height="260" fill="#ffffff" /><text x="20" y="30" fill="#1c2026" font-size="11" font-family="system-ui, -apple-system, Segoe UI, sans-serif" text-anchor="start" font-weight="600">Adattare un modello altrui</text><rect x="20" y="40" width="118" height="34" rx="3" fill="#e9ebee" stroke="#1c2026" stroke-width="1.4" /><text x="79" y="62" fill="#1c2026" font-size="10" font-family="system-ui, -apple-system, Segoe UI, sans-serif" text-anchor="middle">importare</text><line x1="138" y1="57" x2="168" y2="57" stroke="#8b929b" stroke-width="1.4" marker-end="url(#arrow8b929b)" /><rect x="168" y="40" width="118" height="34" rx="3" fill="#e9ebee" stroke="#1c2026" stroke-width="1.4" /><text x="227" y="62" fill="#1c2026" font-size="10" font-family="system-ui, -apple-system, Segoe UI, sans-serif" text-anchor="middle">riparare</text><line x1="286" y1="57" x2="316" y2="57" stroke="#8b929b" stroke-width="1.4" marker-end="url(#arrow8b929b)" /><rect x="316" y="40" width="118" height="34" rx="3" fill="#e9ebee" stroke="#1c2026" stroke-width="1.4" /><text x="375" y="62" fill="#1c2026" font-size="10" font-family="system-ui, -apple-system, Segoe UI, sans-serif" text-anchor="middle">forare</text><line x1="434" y1="57" x2="464" y2="57" stroke="#8b929b" stroke-width="1.4" marker-end="url(#arrow8b929b)" /><rect x="464" y="40" width="118" height="34" rx="3" fill="#e9ebee" stroke="#1c2026" stroke-width="1.4" /><text x="523" y="62" fill="#1c2026" font-size="10" font-family="system-ui, -apple-system, Segoe UI, sans-serif" text-anchor="middle">esportare</text><text x="20" y="106" fill="#1c2026" font-size="11" font-family="system-ui, -apple-system, Segoe UI, sans-serif" text-anchor="start" font-weight="600">Costruire da sé</text><rect x="20" y="116" width="118" height="34" rx="3" fill="#e9ebee" stroke="#1c2026" stroke-width="1.4" /><text x="79" y="138" fill="#1c2026" font-size="10" font-family="system-ui, -apple-system, Segoe UI, sans-serif" text-anchor="middle">dare un nome alle quote</text><line x1="138" y1="133" x2="168" y2="133" stroke="#8b929b" stroke-width="1.4" marker-end="url(#arrow8b929b)" /><rect x="168" y="116" width="118" height="34" rx="3" fill="#e9ebee" stroke="#1c2026" stroke-width="1.4" /><text x="227" y="138" fill="#1c2026" font-size="10" font-family="system-ui, -apple-system, Segoe UI, sans-serif" text-anchor="middle">corpo di base · schizzo</text><line x1="286" y1="133" x2="316" y2="133" stroke="#8b929b" stroke-width="1.4" marker-end="url(#arrow8b929b)" /><rect x="316" y="116" width="118" height="34" rx="3" fill="#e9ebee" stroke="#1c2026" stroke-width="1.4" /><text x="375" y="138" fill="#1c2026" font-size="10" font-family="system-ui, -apple-system, Segoe UI, sans-serif" text-anchor="middle">Blocchi</text><line x1="434" y1="133" x2="464" y2="133" stroke="#8b929b" stroke-width="1.4" marker-end="url(#arrow8b929b)" /><rect x="464" y="116" width="118" height="34" rx="3" fill="#e9ebee" stroke="#1c2026" stroke-width="1.4" /><text x="523" y="138" fill="#1c2026" font-size="10" font-family="system-ui, -apple-system, Segoe UI, sans-serif" text-anchor="middle">esportare</text><text x="20" y="182" fill="#1c2026" font-size="11" font-family="system-ui, -apple-system, Segoe UI, sans-serif" text-anchor="start" font-weight="600">Preparare una mesh generata</text><rect x="20" y="192" width="118" height="34" rx="3" fill="#e9ebee" stroke="#1c2026" stroke-width="1.4" /><text x="79" y="214" fill="#1c2026" font-size="10" font-family="system-ui, -apple-system, Segoe UI, sans-serif" text-anchor="middle">generare</text><line x1="138" y1="209" x2="168" y2="209" stroke="#8b929b" stroke-width="1.4" marker-end="url(#arrow8b929b)" /><rect x="168" y="192" width="118" height="34" rx="3" fill="#e9ebee" stroke="#1c2026" stroke-width="1.4" /><text x="227" y="214" fill="#1c2026" font-size="10" font-family="system-ui, -apple-system, Segoe UI, sans-serif" text-anchor="middle">Catena di riparazione</text><line x1="286" y1="209" x2="316" y2="209" stroke="#8b929b" stroke-width="1.4" marker-end="url(#arrow8b929b)" /><rect x="316" y="192" width="118" height="34" rx="3" fill="#e9ebee" stroke="#1c2026" stroke-width="1.4" /><text x="375" y="214" fill="#1c2026" font-size="10" font-family="system-ui, -apple-system, Segoe UI, sans-serif" text-anchor="middle">verificare</text><line x1="434" y1="209" x2="464" y2="209" stroke="#8b929b" stroke-width="1.4" marker-end="url(#arrow8b929b)" /><rect x="464" y="192" width="118" height="34" rx="3" fill="#e9ebee" stroke="#1c2026" stroke-width="1.4" /><text x="523" y="214" fill="#1c2026" font-size="10" font-family="system-ui, -apple-system, Segoe UI, sans-serif" text-anchor="middle">esportare</text></svg>