<svg xmlns="http://www.w3.org/2000/svg" viewBox="0 0 190 190" width="190" height="190">
<polygon points="87.5,181.8 98.8,182.0 88.4,176.8" fill="#92a0b1" stroke="#92a0b1" stroke-width="0.6" />
<line x1="87.5" y1="181.8" x2="98.8" y2="182.0" stroke="#e6e9ee" stroke-width="0.9" stroke-linecap="round" />
<polygon points="98.8,182.0 110.0,180.9 98.3,177.0" fill="#909eae" stroke="#909eae" stroke-width="0.6" />
<line x1="98.8" y1="182.0" x2="110.0" y2="180.9" stroke="#e6e9ee" stroke-width="0.9" stroke-linecap="round" />
<polygon points="76.3,180.2 87.5,181.8 78.5,175.4" fill="#94a2b3" stroke="#94a2b3" stroke-width="0.6" />
<line x1="76.3" y1="180.2" x2="87.5" y2="181.8" stroke="#e6e9ee" stroke-width="0.9" stroke-linecap="round" />
<polygon points="110.0,180.9 121.0,178.5 108.2,176.0" fill="#8d9bab" stroke="#8d9bab" stroke-width="0.6" />
<line x1="110.0" y1="180.9" x2="121.0" y2="178.5" stroke="#e6e9ee" stroke-width="0.9" stroke-linecap="round" />
<polygon points="65.4,177.4 76.3,180.2 69.0,172.9" fill="#96a4b5" stroke="#96a4b5" stroke-width="0.6" />
<line x1="65.4" y1="177.4" x2="76.3" y2="180.2" stroke="#e6e9ee" stroke-width="0.9" stroke-linecap="round" />
<polygon points="121.0,178.5 131.5,174.7 117.9,173.9" fill="#8b98a8" stroke="#8b98a8" stroke-width="0.6" />
<line x1="121.0" y1="178.5" x2="131.5" y2="174.7" stroke="#e6e9ee" stroke-width="0.9" stroke-linecap="round" />
<polygon points="55.1,173.2 65.4,177.4 59.9,169.3" fill="#97a6b7" stroke="#97a6b7" stroke-width="0.6" />
<line x1="55.1" y1="173.2" x2="65.4" y2="177.4" stroke="#e6e9ee" stroke-width="0.9" stroke-linecap="round" />
<polygon points="131.5,174.7 141.4,169.8 127.1,170.6" fill="#8895a5" stroke="#8895a5" stroke-width="0.6" />
<line x1="131.5" y1="174.7" x2="141.4" y2="169.8" stroke="#e6e9ee" stroke-width="0.9" stroke-linecap="round" />
<polygon points="88.4,176.8 98.8,182.0 98.3,177.0" fill="#92a0b1" stroke="#92a0b1" stroke-width="0.6" />
<polygon points="78.5,175.4 87.5,181.8 88.4,176.8" fill="#94a2b3" stroke="#94a2b3" stroke-width="0.6" />
<polygon points="98.3,177.0 110.0,180.9 108.2,176.0" fill="#909eae" stroke="#909eae" stroke-width="0.6" />
<polygon points="45.4,167.9 55.1,173.2 51.4,164.6" fill="#99a8b9" stroke="#99a8b9" stroke-width="0.6" />
<line x1="45.4" y1="167.9" x2="55.1" y2="173.2" stroke="#e6e9ee" stroke-width="0.9" stroke-linecap="round" />
<polygon points="69.0,172.9 76.3,180.2 78.5,175.4" fill="#96a4b5" stroke="#96a4b5" stroke-width="0.6" />
<polygon points="108.2,176.0 121.0,178.5 117.9,173.9" fill="#8d9bab" stroke="#8d9bab" stroke-width="0.6" />
<polygon points="141.4,169.8 150.5,163.8 135.9,166.3" fill="#8592a2" stroke="#8592a2" stroke-width="0.6" />
<line x1="141.4" y1="169.8" x2="150.5" y2="163.8" stroke="#e6e9ee" stroke-width="0.9" stroke-linecap="round" />
<polygon points="59.9,169.3 65.4,177.4 69.0,172.9" fill="#97a6b7" stroke="#97a6b7" stroke-width="0.6" />
<polygon points="117.9,173.9 131.5,174.7 127.1,170.6" fill="#8b98a8" stroke="#8b98a8" stroke-width="0.6" />
<polygon points="36.6,161.5 45.4,167.9 43.6,159.0" fill="#9aa9ba" stroke="#9aa9ba" stroke-width="0.6" />
<line x1="36.6" y1="161.5" x2="45.4" y2="167.9" stroke="#e6e9ee" stroke-width="0.9" stroke-linecap="round" />
<polygon points="8.9,79.4 8.7,89.7 8.9,96.9" fill="#798593" stroke="#798593" stroke-width="0.6" />
<line x1="8.9" y1="79.4" x2="8.7" y2="89.7" stroke="#e6e9ee" stroke-width="0.9" stroke-linecap="round" />
<polygon points="51.4,164.6 55.1,173.2 59.9,169.3" fill="#99a8b9" stroke="#99a8b9" stroke-width="0.6" />
<polygon points="127.1,170.6 141.4,169.8 135.9,166.3" fill="#8895a5" stroke="#8895a5" stroke-width="0.6" />
<polygon points="150.5,163.8 158.7,156.7 143.9,160.9" fill="#83909e" stroke="#83909e" stroke-width="0.6" />
<line x1="150.5" y1="163.8" x2="158.7" y2="156.7" stroke="#e6e9ee" stroke-width="0.9" stroke-linecap="round" />
<polygon points="181.3,82.8 180.1,72.6 181.3,100.3" fill="#6b7581" stroke="#6b7581" stroke-width="0.6" />
<line x1="181.3" y1="82.8" x2="180.1" y2="72.6" stroke="#e6e9ee" stroke-width="0.9" stroke-linecap="round" />
<polygon points="28.8,154.1 36.6,161.5 36.8,152.4" fill="#9baabb" stroke="#9baabb" stroke-width="0.6" />
<line x1="28.8" y1="154.1" x2="36.6" y2="161.5" stroke="#e6e9ee" stroke-width="0.9" stroke-linecap="round" />
<polygon points="43.6,159.0 45.4,167.9 51.4,164.6" fill="#9aa9ba" stroke="#9aa9ba" stroke-width="0.6" />
<polygon points="135.9,166.3 150.5,163.8 143.9,160.9" fill="#8592a2" stroke="#8592a2" stroke-width="0.6" />
<polygon points="158.7,156.7 165.8,148.7 151.1,154.7" fill="#808d9b" stroke="#808d9b" stroke-width="0.6" />
<line x1="165.8" y1="148.7" x2="158.7" y2="156.7" stroke="#e6e9ee" stroke-width="0.9" stroke-linecap="round" />
<polygon points="10.6,69.3 8.9,79.4 10.6,86.8" fill="#778290" stroke="#778290" stroke-width="0.6" />
<line x1="10.6" y1="69.3" x2="8.9" y2="79.4" stroke="#e6e9ee" stroke-width="0.9" stroke-linecap="round" />
<polygon points="36.8,152.4 36.6,161.5 43.6,159.0" fill="#9baabb" stroke="#9baabb" stroke-width="0.6" />
<polygon points="143.9,160.9 158.7,156.7 151.1,154.7" fill="#83909e" stroke="#83909e" stroke-width="0.6" />
<polygon points="180.1,72.6 177.4,62.7 180.1,90.2" fill="#6b7682" stroke="#6b7682" stroke-width="0.6" />
<line x1="180.1" y1="72.6" x2="177.4" y2="62.7" stroke="#e6e9ee" stroke-width="0.9" stroke-linecap="round" />
<polygon points="22.1,145.8 28.8,154.1 30.9,145.2" fill="#9baabb" stroke="#9baabb" stroke-width="0.6" />
<line x1="22.1" y1="145.8" x2="28.8" y2="154.1" stroke="#e6e9ee" stroke-width="0.9" stroke-linecap="round" />
<polygon points="165.8,148.7 171.6,139.9 157.3,147.7" fill="#7e8a99" stroke="#7e8a99" stroke-width="0.6" />
<line x1="165.8" y1="148.7" x2="171.6" y2="139.9" stroke="#e6e9ee" stroke-width="0.9" stroke-linecap="round" />
<polygon points="30.9,145.2 28.8,154.1 36.8,152.4" fill="#9baabb" stroke="#9baabb" stroke-width="0.6" />
<polygon points="13.8,59.5 10.6,69.3 13.8,77.0" fill="#74808d" stroke="#74808d" stroke-width="0.6" />
<line x1="13.8" y1="59.5" x2="10.6" y2="69.3" stroke="#e6e9ee" stroke-width="0.9" stroke-linecap="round" />
<polygon points="151.1,154.7 165.8,148.7 157.3,147.7" fill="#808d9b" stroke="#808d9b" stroke-width="0.6" />
<polygon points="16.7,136.9 22.1,145.8 26.1,137.3" fill="#9baabb" stroke="#9baabb" stroke-width="0.6" />
<line x1="16.7" y1="136.9" x2="22.1" y2="145.8" stroke="#e6e9ee" stroke-width="0.9" stroke-linecap="round" />
<polygon points="177.4,62.7 173.3,53.1 177.4,80.2" fill="#6c7682" stroke="#6c7682" stroke-width="0.6" />
<line x1="177.4" y1="62.7" x2="173.3" y2="53.1" stroke="#e6e9ee" stroke-width="0.9" stroke-linecap="round" />
<polygon points="8.9,96.9 8.7,89.7 8.7,107.2" fill="#798593" stroke="#798593" stroke-width="0.6" />
<line x1="8.7" y1="89.7" x2="8.7" y2="107.2" stroke="#e6e9ee" stroke-width="0.9" stroke-linecap="round" />
<polygon points="88.4,176.8 98.3,177.0 95.0,108.1" fill="#97a5b6" stroke="#97a5b6" stroke-width="0.6" />
<line x1="88.4" y1="176.8" x2="98.3" y2="177.0" stroke="#e6e9ee" stroke-width="0.9" stroke-linecap="round" />
<polygon points="98.3,177.0 108.2,176.0 95.0,108.1" fill="#97a5b6" stroke="#97a5b6" stroke-width="0.6" />
<line x1="98.3" y1="177.0" x2="108.2" y2="176.0" stroke="#e6e9ee" stroke-width="0.9" stroke-linecap="round" />
<polygon points="78.5,175.4 88.4,176.8 95.0,108.1" fill="#97a5b6" stroke="#97a5b6" stroke-width="0.6" />
<line x1="78.5" y1="175.4" x2="88.4" y2="176.8" stroke="#e6e9ee" stroke-width="0.9" stroke-linecap="round" />
<polygon points="171.6,139.9 176.2,130.5 162.4,140.0" fill="#7c8896" stroke="#7c8896" stroke-width="0.6" />
<line x1="171.6" y1="139.9" x2="176.2" y2="130.5" stroke="#e6e9ee" stroke-width="0.9" stroke-linecap="round" />
<polygon points="108.2,176.0 117.9,173.9 95.0,108.1" fill="#97a5b6" stroke="#97a5b6" stroke-width="0.6" />
<line x1="108.2" y1="176.0" x2="117.9" y2="173.9" stroke="#e6e9ee" stroke-width="0.9" stroke-linecap="round" />
<polygon points="69.0,172.9 78.5,175.4 95.0,108.1" fill="#97a5b6" stroke="#97a5b6" stroke-width="0.6" />
<line x1="69.0" y1="172.9" x2="78.5" y2="175.4" stroke="#e6e9ee" stroke-width="0.9" stroke-linecap="round" />
<polygon points="26.1,137.3 22.1,145.8 30.9,145.2" fill="#9baabb" stroke="#9baabb" stroke-width="0.6" />
<polygon points="117.9,173.9 127.1,170.6 95.0,108.1" fill="#97a5b6" stroke="#97a5b6" stroke-width="0.6" />
<line x1="117.9" y1="173.9" x2="127.1" y2="170.6" stroke="#e6e9ee" stroke-width="0.9" stroke-linecap="round" />
<polygon points="157.3,147.7 171.6,139.9 162.4,140.0" fill="#7e8a99" stroke="#7e8a99" stroke-width="0.6" />
<polygon points="59.9,169.3 69.0,172.9 95.0,108.1" fill="#97a5b6" stroke="#97a5b6" stroke-width="0.6" />
<line x1="59.9" y1="169.3" x2="69.0" y2="172.9" stroke="#e6e9ee" stroke-width="0.9" stroke-linecap="round" />
<polygon points="18.4,50.1 13.8,59.5 18.4,67.6" fill="#717c89" stroke="#717c89" stroke-width="0.6" />
<line x1="18.4" y1="50.1" x2="13.8" y2="59.5" stroke="#e6e9ee" stroke-width="0.9" stroke-linecap="round" />
<polygon points="127.1,170.6 135.9,166.3 95.0,108.1" fill="#97a5b6" stroke="#97a5b6" stroke-width="0.6" />
<line x1="127.1" y1="170.6" x2="135.9" y2="166.3" stroke="#e6e9ee" stroke-width="0.9" stroke-linecap="round" />
<polygon points="12.6,127.3 16.7,136.9 22.5,128.9" fill="#9baabb" stroke="#9baabb" stroke-width="0.6" />
<line x1="12.6" y1="127.3" x2="16.7" y2="136.9" stroke="#e6e9ee" stroke-width="0.9" stroke-linecap="round" />
<polygon points="51.4,164.6 59.9,169.3 95.0,108.1" fill="#97a5b6" stroke="#97a5b6" stroke-width="0.6" />
<line x1="51.4" y1="164.6" x2="59.9" y2="169.3" stroke="#e6e9ee" stroke-width="0.9" stroke-linecap="round" />
<polygon points="173.3,53.1 167.9,44.2 173.3,70.7" fill="#6c7683" stroke="#6c7683" stroke-width="0.6" />
<line x1="173.3" y1="53.1" x2="167.9" y2="44.2" stroke="#e6e9ee" stroke-width="0.9" stroke-linecap="round" />
<polygon points="135.9,166.3 143.9,160.9 95.0,108.1" fill="#97a5b6" stroke="#97a5b6" stroke-width="0.6" />
<line x1="135.9" y1="166.3" x2="143.9" y2="160.9" stroke="#e6e9ee" stroke-width="0.9" stroke-linecap="round" />
<polygon points="10.6,86.8 8.9,79.4 8.9,96.9" fill="#778290" stroke="#778290" stroke-width="0.6" />
<polygon points="181.3,100.3 180.1,72.6 180.1,90.2" fill="#6b7581" stroke="#6b7581" stroke-width="0.6" />
<polygon points="176.2,130.5 179.4,120.7 166.5,131.7" fill="#7a8693" stroke="#7a8693" stroke-width="0.6" />
<line x1="176.2" y1="130.5" x2="179.4" y2="120.7" stroke="#e6e9ee" stroke-width="0.9" stroke-linecap="round" />
<polygon points="43.6,159.0 51.4,164.6 95.0,108.1" fill="#97a5b6" stroke="#97a5b6" stroke-width="0.6" />
<line x1="43.6" y1="159.0" x2="51.4" y2="164.6" stroke="#e6e9ee" stroke-width="0.9" stroke-linecap="round" />
<polygon points="22.5,128.9 16.7,136.9 26.1,137.3" fill="#9baabb" stroke="#9baabb" stroke-width="0.6" />
<polygon points="162.4,140.0 176.2,130.5 166.5,131.7" fill="#7c8896" stroke="#7c8896" stroke-width="0.6" />
<polygon points="143.9,160.9 151.1,154.7 95.0,108.1" fill="#97a5b6" stroke="#97a5b6" stroke-width="0.6" />
<line x1="143.9" y1="160.9" x2="151.1" y2="154.7" stroke="#e6e9ee" stroke-width="0.9" stroke-linecap="round" />
<polygon points="24.2,41.3 18.4,50.1 24.2,58.8" fill="#6e7986" stroke="#6e7986" stroke-width="0.6" />
<line x1="24.2" y1="41.3" x2="18.4" y2="50.1" stroke="#e6e9ee" stroke-width="0.9" stroke-linecap="round" />
<polygon points="36.8,152.4 43.6,159.0 95.0,108.1" fill="#97a5b6" stroke="#97a5b6" stroke-width="0.6" />
<line x1="36.8" y1="152.4" x2="43.6" y2="159.0" stroke="#e6e9ee" stroke-width="0.9" stroke-linecap="round" />
<polygon points="9.9,117.4 12.6,127.3 20.1,120.1" fill="#9aa9ba" stroke="#9aa9ba" stroke-width="0.6" />
<line x1="9.9" y1="117.4" x2="12.6" y2="127.3" stroke="#e6e9ee" stroke-width="0.9" stroke-linecap="round" />
<polygon points="167.9,44.2 161.2,35.9 167.9,61.7" fill="#6c7683" stroke="#6c7683" stroke-width="0.6" />
<line x1="167.9" y1="44.2" x2="161.2" y2="35.9" stroke="#e6e9ee" stroke-width="0.9" stroke-linecap="round" />
<polygon points="151.1,154.7 157.3,147.7 95.0,108.1" fill="#97a5b6" stroke="#97a5b6" stroke-width="0.6" />
<line x1="157.3" y1="147.7" x2="151.1" y2="154.7" stroke="#e6e9ee" stroke-width="0.9" stroke-linecap="round" />
<polygon points="30.9,145.2 36.8,152.4 95.0,108.1" fill="#97a5b6" stroke="#97a5b6" stroke-width="0.6" />
<line x1="30.9" y1="145.2" x2="36.8" y2="152.4" stroke="#e6e9ee" stroke-width="0.9" stroke-linecap="round" />
<polygon points="13.8,77.0 10.6,69.3 10.6,86.8" fill="#74808d" stroke="#74808d" stroke-width="0.6" />
<polygon points="180.1,90.2 177.4,62.7 177.4,80.2" fill="#6b7682" stroke="#6b7682" stroke-width="0.6" />
<polygon points="179.4,120.7 181.1,110.6 169.2,123.1" fill="#788491" stroke="#788491" stroke-width="0.6" />
<line x1="179.4" y1="120.7" x2="181.1" y2="110.6" stroke="#e6e9ee" stroke-width="0.9" stroke-linecap="round" />
<polygon points="20.1,120.1 12.6,127.3 22.5,128.9" fill="#9aa9ba" stroke="#9aa9ba" stroke-width="0.6" />
<polygon points="166.5,131.7 179.4,120.7 169.2,123.1" fill="#7a8693" stroke="#7a8693" stroke-width="0.6" />
<polygon points="157.3,147.7 162.4,140.0 95.0,108.1" fill="#97a5b6" stroke="#97a5b6" stroke-width="0.6" />
<line x1="157.3" y1="147.7" x2="162.4" y2="140.0" stroke="#e6e9ee" stroke-width="0.9" stroke-linecap="round" />
<polygon points="31.3,33.3 24.2,41.3 31.3,50.9" fill="#6b7581" stroke="#6b7581" stroke-width="0.6" />
<line x1="31.3" y1="33.3" x2="24.2" y2="41.3" stroke="#e6e9ee" stroke-width="0.9" stroke-linecap="round" />
<polygon points="26.1,137.3 30.9,145.2 95.0,108.1" fill="#97a5b6" stroke="#97a5b6" stroke-width="0.6" />
<line x1="26.1" y1="137.3" x2="30.9" y2="145.2" stroke="#e6e9ee" stroke-width="0.9" stroke-linecap="round" />
<polygon points="161.2,35.9 153.4,28.5 161.2,53.4" fill="#6c7682" stroke="#6c7682" stroke-width="0.6" />
<line x1="161.2" y1="35.9" x2="153.4" y2="28.5" stroke="#e6e9ee" stroke-width="0.9" stroke-linecap="round" />
<polygon points="8.7,107.2 9.9,117.4 19.0,111.2" fill="#99a8b9" stroke="#99a8b9" stroke-width="0.6" />
<line x1="8.7" y1="107.2" x2="9.9" y2="117.4" stroke="#e6e9ee" stroke-width="0.9" stroke-linecap="round" />
<polygon points="162.4,140.0 166.5,131.7 95.0,108.1" fill="#97a5b6" stroke="#97a5b6" stroke-width="0.6" />
<line x1="162.4" y1="140.0" x2="166.5" y2="131.7" stroke="#e6e9ee" stroke-width="0.9" stroke-linecap="round" />
<polygon points="18.4,67.6 13.8,59.5 13.8,77.0" fill="#717c89" stroke="#717c89" stroke-width="0.6" />
<polygon points="177.4,80.2 173.3,53.1 173.3,70.7" fill="#6c7682" stroke="#6c7682" stroke-width="0.6" />
<polygon points="22.5,128.9 26.1,137.3 95.0,108.1" fill="#97a5b6" stroke="#97a5b6" stroke-width="0.6" />
<line x1="22.5" y1="128.9" x2="26.1" y2="137.3" stroke="#e6e9ee" stroke-width="0.9" stroke-linecap="round" />
<polygon points="181.1,110.6 181.3,100.3 170.7,114.2" fill="#76828f" stroke="#76828f" stroke-width="0.6" />
<line x1="181.1" y1="110.6" x2="181.3" y2="100.3" stroke="#e6e9ee" stroke-width="0.9" stroke-linecap="round" />
<polygon points="39.5,26.2 31.3,33.3 39.5,43.8" fill="#67717d" stroke="#67717d" stroke-width="0.6" />
<line x1="39.5" y1="26.2" x2="31.3" y2="33.3" stroke="#e6e9ee" stroke-width="0.9" stroke-linecap="round" />
<polygon points="19.0,111.2 9.9,117.4 20.1,120.1" fill="#99a8b9" stroke="#99a8b9" stroke-width="0.6" />
<polygon points="169.2,123.1 181.1,110.6 170.7,114.2" fill="#788491" stroke="#788491" stroke-width="0.6" />
<polygon points="153.4,28.5 144.6,22.1 153.4,46.0" fill="#6b7682" stroke="#6b7682" stroke-width="0.6" />
<line x1="153.4" y1="28.5" x2="144.6" y2="22.1" stroke="#e6e9ee" stroke-width="0.9" stroke-linecap="round" />
<polygon points="166.5,131.7 169.2,123.1 95.0,108.1" fill="#97a5b6" stroke="#97a5b6" stroke-width="0.6" />
<line x1="166.5" y1="131.7" x2="169.2" y2="123.1" stroke="#e6e9ee" stroke-width="0.9" stroke-linecap="round" />
<polygon points="20.1,120.1 22.5,128.9 95.0,108.1" fill="#97a5b6" stroke="#97a5b6" stroke-width="0.6" />
<line x1="20.1" y1="120.1" x2="22.5" y2="128.9" stroke="#e6e9ee" stroke-width="0.9" stroke-linecap="round" />
<polygon points="8.9,96.9 8.7,107.2 19.3,102.1" fill="#98a6b8" stroke="#98a6b8" stroke-width="0.6" />
<line x1="8.9" y1="96.9" x2="8.7" y2="107.2" stroke="#e6e9ee" stroke-width="0.9" stroke-linecap="round" />
<polygon points="48.6,20.2 39.5,26.2 48.6,37.7" fill="#646d79" stroke="#646d79" stroke-width="0.6" />
<line x1="48.6" y1="20.2" x2="39.5" y2="26.2" stroke="#e6e9ee" stroke-width="0.9" stroke-linecap="round" />
<polygon points="144.6,22.1 134.9,16.8 144.6,39.6" fill="#6b7581" stroke="#6b7581" stroke-width="0.6" />
<line x1="144.6" y1="22.1" x2="134.9" y2="16.8" stroke="#e6e9ee" stroke-width="0.9" stroke-linecap="round" />
<polygon points="24.2,58.8 18.4,50.1 18.4,67.6" fill="#6e7986" stroke="#6e7986" stroke-width="0.6" />
<polygon points="173.3,70.7 167.9,44.2 167.9,61.7" fill="#6c7683" stroke="#6c7683" stroke-width="0.6" />
<polygon points="169.2,123.1 170.7,114.2 95.0,108.1" fill="#97a5b6" stroke="#97a5b6" stroke-width="0.6" />
<line x1="169.2" y1="123.1" x2="170.7" y2="114.2" stroke="#e6e9ee" stroke-width="0.9" stroke-linecap="round" />
<polygon points="19.3,102.1 8.7,107.2 19.0,111.2" fill="#98a6b8" stroke="#98a6b8" stroke-width="0.6" />
<polygon points="181.3,100.3 180.1,90.2 171.0,105.1" fill="#75808e" stroke="#75808e" stroke-width="0.6" />
<line x1="181.3" y1="100.3" x2="180.1" y2="90.2" stroke="#e6e9ee" stroke-width="0.9" stroke-linecap="round" />
<polygon points="170.7,114.2 181.3,100.3 171.0,105.1" fill="#76828f" stroke="#76828f" stroke-width="0.6" />
<polygon points="19.0,111.2 20.1,120.1 95.0,108.1" fill="#97a5b6" stroke="#97a5b6" stroke-width="0.6" />
<line x1="19.0" y1="111.2" x2="20.1" y2="120.1" stroke="#e6e9ee" stroke-width="0.9" stroke-linecap="round" />
<polygon points="58.5,15.3 48.6,20.2 58.5,32.8" fill="#626c77" stroke="#626c77" stroke-width="0.6" />
<line x1="58.5" y1="15.3" x2="48.6" y2="20.2" stroke="#e6e9ee" stroke-width="0.9" stroke-linecap="round" />
<polygon points="134.9,16.8 124.6,12.6 134.9,34.3" fill="#6a7480" stroke="#6a7480" stroke-width="0.6" />
<line x1="134.9" y1="16.8" x2="124.6" y2="12.6" stroke="#e6e9ee" stroke-width="0.9" stroke-linecap="round" />
<polygon points="170.7,114.2 171.0,105.1 95.0,108.1" fill="#97a5b6" stroke="#97a5b6" stroke-width="0.6" />
<line x1="170.7" y1="114.2" x2="171.0" y2="105.1" stroke="#e6e9ee" stroke-width="0.9" stroke-linecap="round" />
<polygon points="10.6,86.8 8.9,96.9 20.8,93.2" fill="#96a5b6" stroke="#96a5b6" stroke-width="0.6" />
<line x1="10.6" y1="86.8" x2="8.9" y2="96.9" stroke="#e6e9ee" stroke-width="0.9" stroke-linecap="round" />
<polygon points="69.0,11.5 58.5,15.3 69.0,29.1" fill="#636d78" stroke="#636d78" stroke-width="0.6" />
<line x1="69.0" y1="11.5" x2="58.5" y2="15.3" stroke="#e6e9ee" stroke-width="0.9" stroke-linecap="round" />
<polygon points="31.3,50.9 24.2,41.3 24.2,58.8" fill="#6b7581" stroke="#6b7581" stroke-width="0.6" />
<polygon points="167.9,61.7 161.2,35.9 161.2,53.4" fill="#6c7683" stroke="#6c7683" stroke-width="0.6" />
<polygon points="124.6,12.6 113.7,9.8 124.6,30.2" fill="#69737f" stroke="#69737f" stroke-width="0.6" />
<line x1="124.6" y1="12.6" x2="113.7" y2="9.8" stroke="#e6e9ee" stroke-width="0.9" stroke-linecap="round" />
<polygon points="19.3,102.1 19.0,111.2 95.0,108.1" fill="#97a5b6" stroke="#97a5b6" stroke-width="0.6" />
<line x1="19.3" y1="102.1" x2="19.0" y2="111.2" stroke="#e6e9ee" stroke-width="0.9" stroke-linecap="round" />
<polygon points="80.0,9.1 69.0,11.5 80.0,26.6" fill="#656f7a" stroke="#656f7a" stroke-width="0.6" />
<line x1="80.0" y1="9.1" x2="69.0" y2="11.5" stroke="#e6e9ee" stroke-width="0.9" stroke-linecap="round" />
<polygon points="20.8,93.2 8.9,96.9 19.3,102.1" fill="#96a5b6" stroke="#96a5b6" stroke-width="0.6" />
<polygon points="171.0,105.1 180.1,90.2 169.9,96.2" fill="#75808e" stroke="#75808e" stroke-width="0.6" />
<polygon points="180.1,90.2 177.4,80.2 169.9,96.2" fill="#747f8d" stroke="#747f8d" stroke-width="0.6" />
<line x1="180.1" y1="90.2" x2="177.4" y2="80.2" stroke="#e6e9ee" stroke-width="0.9" stroke-linecap="round" />
<polygon points="113.7,9.8 102.5,8.2 113.7,27.3" fill="#68727e" stroke="#68727e" stroke-width="0.6" />
<line x1="113.7" y1="9.8" x2="102.5" y2="8.2" stroke="#e6e9ee" stroke-width="0.9" stroke-linecap="round" />
<polygon points="91.2,8.0 80.0,9.1 91.2,25.5" fill="#66707b" stroke="#66707b" stroke-width="0.6" />
<line x1="91.2" y1="8.0" x2="80.0" y2="9.1" stroke="#e6e9ee" stroke-width="0.9" stroke-linecap="round" />
<polygon points="102.5,8.2 91.2,8.0 102.5,25.8" fill="#67717d" stroke="#67717d" stroke-width="0.6" />
<line x1="102.5" y1="8.2" x2="91.2" y2="8.0" stroke="#e6e9ee" stroke-width="0.9" stroke-linecap="round" />
<polygon points="171.0,105.1 169.9,96.2 95.0,108.1" fill="#97a5b6" stroke="#97a5b6" stroke-width="0.6" />
<line x1="171.0" y1="105.1" x2="169.9" y2="96.2" stroke="#e6e9ee" stroke-width="0.9" stroke-linecap="round" />
<polygon points="20.8,93.2 19.3,102.1 95.0,108.1" fill="#97a5b6" stroke="#97a5b6" stroke-width="0.6" />
<line x1="20.8" y1="93.2" x2="19.3" y2="102.1" stroke="#e6e9ee" stroke-width="0.9" stroke-linecap="round" />
<polygon points="39.5,43.8 31.3,33.3 31.3,50.9" fill="#67717d" stroke="#67717d" stroke-width="0.6" />
<polygon points="161.2,53.4 153.4,28.5 153.4,46.0" fill="#6c7682" stroke="#6c7682" stroke-width="0.6" />
<polygon points="13.8,77.0 10.6,86.8 23.5,84.6" fill="#94a3b4" stroke="#94a3b4" stroke-width="0.6" />
<line x1="13.8" y1="77.0" x2="10.6" y2="86.8" stroke="#e6e9ee" stroke-width="0.9" stroke-linecap="round" />
<polygon points="169.9,96.2 167.5,87.4 95.0,108.1" fill="#97a5b6" stroke="#97a5b6" stroke-width="0.6" />
<polygon points="23.5,84.6 10.6,86.8 20.8,93.2" fill="#94a3b4" stroke="#94a3b4" stroke-width="0.6" />
<polygon points="169.9,96.2 177.4,80.2 167.5,87.4" fill="#747f8d" stroke="#747f8d" stroke-width="0.6" />
<line x1="169.9" y1="96.2" x2="167.5" y2="87.4" stroke="#e6e9ee" stroke-width="0.9" stroke-linecap="round" />
<polygon points="177.4,80.2 173.3,70.7 167.5,87.4" fill="#737f8c" stroke="#737f8c" stroke-width="0.6" />
<line x1="177.4" y1="80.2" x2="173.3" y2="70.7" stroke="#e6e9ee" stroke-width="0.9" stroke-linecap="round" />
<polygon points="23.5,84.6 20.8,93.2 95.0,108.1" fill="#97a5b6" stroke="#97a5b6" stroke-width="0.6" />
<line x1="23.5" y1="84.6" x2="20.8" y2="93.2" stroke="#e6e9ee" stroke-width="0.9" stroke-linecap="round" />
<polygon points="48.6,37.7 39.5,26.2 39.5,43.8" fill="#646d79" stroke="#646d79" stroke-width="0.6" />
<polygon points="153.4,46.0 144.6,22.1 144.6,39.6" fill="#6b7682" stroke="#6b7682" stroke-width="0.6" />
<polygon points="167.5,87.4 163.9,79.0 95.0,108.1" fill="#97a5b6" stroke="#97a5b6" stroke-width="0.6" />
<polygon points="18.4,67.6 13.8,77.0 27.6,76.3" fill="#92a0b1" stroke="#92a0b1" stroke-width="0.6" />
<line x1="18.4" y1="67.6" x2="13.8" y2="77.0" stroke="#e6e9ee" stroke-width="0.9" stroke-linecap="round" />
<polygon points="27.6,76.3 23.5,84.6 95.0,108.1" fill="#97a5b6" stroke="#97a5b6" stroke-width="0.6" />
<polygon points="58.5,32.8 48.6,20.2 48.6,37.7" fill="#626c77" stroke="#626c77" stroke-width="0.6" />
<polygon points="144.6,39.6 134.9,16.8 134.9,34.3" fill="#6b7581" stroke="#6b7581" stroke-width="0.6" />
<polygon points="27.6,76.3 13.8,77.0 23.5,84.6" fill="#92a0b1" stroke="#92a0b1" stroke-width="0.6" />
<line x1="27.6" y1="76.3" x2="23.5" y2="84.6" stroke="#e6e9ee" stroke-width="0.9" stroke-linecap="round" />
<polygon points="167.5,87.4 173.3,70.7 163.9,79.0" fill="#737f8c" stroke="#737f8c" stroke-width="0.6" />
<line x1="167.5" y1="87.4" x2="163.9" y2="79.0" stroke="#e6e9ee" stroke-width="0.9" stroke-linecap="round" />
<polygon points="173.3,70.7 167.9,61.7 163.9,79.0" fill="#737e8b" stroke="#737e8b" stroke-width="0.6" />
<line x1="173.3" y1="70.7" x2="167.9" y2="61.7" stroke="#e6e9ee" stroke-width="0.9" stroke-linecap="round" />
<polygon points="163.9,79.0 159.1,71.1 95.0,108.1" fill="#97a5b6" stroke="#97a5b6" stroke-width="0.6" />
<polygon points="32.7,68.6 27.6,76.3 95.0,108.1" fill="#97a5b6" stroke="#97a5b6" stroke-width="0.6" />
<polygon points="69.0,29.1 58.5,15.3 58.5,32.8" fill="#636d78" stroke="#636d78" stroke-width="0.6" />
<polygon points="134.9,34.3 124.6,12.6 124.6,30.2" fill="#6a7480" stroke="#6a7480" stroke-width="0.6" />
<polygon points="24.2,58.8 18.4,67.6 32.7,68.6" fill="#909eae" stroke="#909eae" stroke-width="0.6" />
<line x1="24.2" y1="58.8" x2="18.4" y2="67.6" stroke="#e6e9ee" stroke-width="0.9" stroke-linecap="round" />
<polygon points="159.1,71.1 153.2,63.8 95.0,108.1" fill="#97a5b6" stroke="#97a5b6" stroke-width="0.6" />
<polygon points="80.0,26.6 69.0,11.5 69.0,29.1" fill="#656f7a" stroke="#656f7a" stroke-width="0.6" />
<polygon points="124.6,30.2 113.7,9.8 113.7,27.3" fill="#69737f" stroke="#69737f" stroke-width="0.6" />
<polygon points="38.9,61.6 32.7,68.6 95.0,108.1" fill="#97a5b6" stroke="#97a5b6" stroke-width="0.6" />
<polygon points="32.7,68.6 18.4,67.6 27.6,76.3" fill="#909eae" stroke="#909eae" stroke-width="0.6" />
<line x1="32.7" y1="68.6" x2="27.6" y2="76.3" stroke="#e6e9ee" stroke-width="0.9" stroke-linecap="round" />
<polygon points="163.9,79.0 167.9,61.7 159.1,71.1" fill="#737e8b" stroke="#737e8b" stroke-width="0.6" />
<line x1="163.9" y1="79.0" x2="159.1" y2="71.1" stroke="#e6e9ee" stroke-width="0.9" stroke-linecap="round" />
<polygon points="167.9,61.7 161.2,53.4 159.1,71.1" fill="#737e8b" stroke="#737e8b" stroke-width="0.6" />
<line x1="167.9" y1="61.7" x2="161.2" y2="53.4" stroke="#e6e9ee" stroke-width="0.9" stroke-linecap="round" />
<polygon points="91.2,25.5 80.0,9.1 80.0,26.6" fill="#66707b" stroke="#66707b" stroke-width="0.6" />
<polygon points="113.7,27.3 102.5,8.2 102.5,25.8" fill="#68727e" stroke="#68727e" stroke-width="0.6" />
<polygon points="102.5,25.8 91.2,8.0 91.2,25.5" fill="#67717d" stroke="#67717d" stroke-width="0.6" />
<polygon points="153.2,63.8 146.4,57.3 95.0,108.1" fill="#97a5b6" stroke="#97a5b6" stroke-width="0.6" />
<polygon points="46.1,55.4 38.9,61.6 95.0,108.1" fill="#97a5b6" stroke="#97a5b6" stroke-width="0.6" />
<polygon points="31.3,50.9 24.2,58.8 38.9,61.6" fill="#8e9bab" stroke="#8e9bab" stroke-width="0.6" />
<line x1="31.3" y1="50.9" x2="24.2" y2="58.8" stroke="#e6e9ee" stroke-width="0.9" stroke-linecap="round" />
<polygon points="146.4,57.3 138.6,51.7 95.0,108.1" fill="#97a5b6" stroke="#97a5b6" stroke-width="0.6" />
<polygon points="38.9,61.6 24.2,58.8 32.7,68.6" fill="#8e9bab" stroke="#8e9bab" stroke-width="0.6" />
<line x1="38.9" y1="61.6" x2="32.7" y2="68.6" stroke="#e6e9ee" stroke-width="0.9" stroke-linecap="round" />
<polygon points="54.1,50.0 46.1,55.4 95.0,108.1" fill="#97a5b6" stroke="#97a5b6" stroke-width="0.6" />
<polygon points="159.1,71.1 161.2,53.4 153.2,63.8" fill="#737e8b" stroke="#737e8b" stroke-width="0.6" />
<line x1="159.1" y1="71.1" x2="153.2" y2="63.8" stroke="#e6e9ee" stroke-width="0.9" stroke-linecap="round" />
<polygon points="161.2,53.4 153.4,46.0 153.2,63.8" fill="#747f8c" stroke="#747f8c" stroke-width="0.6" />
<line x1="161.2" y1="53.4" x2="153.4" y2="46.0" stroke="#e6e9ee" stroke-width="0.9" stroke-linecap="round" />
<polygon points="138.6,51.7 130.1,47.0 95.0,108.1" fill="#97a5b6" stroke="#97a5b6" stroke-width="0.6" />
<polygon points="62.9,45.7 54.1,50.0 95.0,108.1" fill="#97a5b6" stroke="#97a5b6" stroke-width="0.6" />
<polygon points="39.5,43.8 31.3,50.9 46.1,55.4" fill="#8b99a8" stroke="#8b99a8" stroke-width="0.6" />
<line x1="39.5" y1="43.8" x2="31.3" y2="50.9" stroke="#e6e9ee" stroke-width="0.9" stroke-linecap="round" />
<polygon points="130.1,47.0 121.0,43.4 95.0,108.1" fill="#97a5b6" stroke="#97a5b6" stroke-width="0.6" />
<polygon points="72.1,42.4 62.9,45.7 95.0,108.1" fill="#97a5b6" stroke="#97a5b6" stroke-width="0.6" />
<polygon points="121.0,43.4 111.5,40.9 95.0,108.1" fill="#97a5b6" stroke="#97a5b6" stroke-width="0.6" />
<polygon points="46.1,55.4 31.3,50.9 38.9,61.6" fill="#8b99a8" stroke="#8b99a8" stroke-width="0.6" />
<line x1="46.1" y1="55.4" x2="38.9" y2="61.6" stroke="#e6e9ee" stroke-width="0.9" stroke-linecap="round" />
<polygon points="153.4,46.0 144.6,39.6 146.4,57.3" fill="#74808d" stroke="#74808d" stroke-width="0.6" />
<line x1="153.4" y1="46.0" x2="144.6" y2="39.6" stroke="#e6e9ee" stroke-width="0.9" stroke-linecap="round" />
<polygon points="153.2,63.8 153.4,46.0 146.4,57.3" fill="#747f8c" stroke="#747f8c" stroke-width="0.6" />
<line x1="153.2" y1="63.8" x2="146.4" y2="57.3" stroke="#e6e9ee" stroke-width="0.9" stroke-linecap="round" />
<polygon points="81.8,40.3 72.1,42.4 95.0,108.1" fill="#97a5b6" stroke="#97a5b6" stroke-width="0.6" />
<polygon points="111.5,40.9 101.6,39.5 95.0,108.1" fill="#97a5b6" stroke="#97a5b6" stroke-width="0.6" />
<polygon points="91.7,39.3 81.8,40.3 95.0,108.1" fill="#97a5b6" stroke="#97a5b6" stroke-width="0.6" />
<polygon points="101.6,39.5 91.7,39.3 95.0,108.1" fill="#97a5b6" stroke="#97a5b6" stroke-width="0.6" />
<polygon points="48.6,37.7 39.5,43.8 54.1,50.0" fill="#8996a5" stroke="#8996a5" stroke-width="0.6" />
<line x1="48.6" y1="37.7" x2="39.5" y2="43.8" stroke="#e6e9ee" stroke-width="0.9" stroke-linecap="round" />
<polygon points="144.6,39.6 134.9,34.3 138.6,51.7" fill="#75818e" stroke="#75818e" stroke-width="0.6" />
<line x1="144.6" y1="39.6" x2="134.9" y2="34.3" stroke="#e6e9ee" stroke-width="0.9" stroke-linecap="round" />
<polygon points="54.1,50.0 39.5,43.8 46.1,55.4" fill="#8996a5" stroke="#8996a5" stroke-width="0.6" />
<line x1="54.1" y1="50.0" x2="46.1" y2="55.4" stroke="#e6e9ee" stroke-width="0.9" stroke-linecap="round" />
<polygon points="146.4,57.3 144.6,39.6 138.6,51.7" fill="#74808d" stroke="#74808d" stroke-width="0.6" />
<line x1="146.4" y1="57.3" x2="138.6" y2="51.7" stroke="#e6e9ee" stroke-width="0.9" stroke-linecap="round" />
<polygon points="58.5,32.8 48.6,37.7 62.9,45.7" fill="#8693a2" stroke="#8693a2" stroke-width="0.6" />
<line x1="58.5" y1="32.8" x2="48.6" y2="37.7" stroke="#e6e9ee" stroke-width="0.9" stroke-linecap="round" />
<polygon points="134.9,34.3 124.6,30.2 130.1,47.0" fill="#778290" stroke="#778290" stroke-width="0.6" />
<line x1="134.9" y1="34.3" x2="124.6" y2="30.2" stroke="#e6e9ee" stroke-width="0.9" stroke-linecap="round" />
<polygon points="62.9,45.7 48.6,37.7 54.1,50.0" fill="#8693a2" stroke="#8693a2" stroke-width="0.6" />
<line x1="62.9" y1="45.7" x2="54.1" y2="50.0" stroke="#e6e9ee" stroke-width="0.9" stroke-linecap="round" />
<polygon points="138.6,51.7 134.9,34.3 130.1,47.0" fill="#75818e" stroke="#75818e" stroke-width="0.6" />
<line x1="138.6" y1="51.7" x2="130.1" y2="47.0" stroke="#e6e9ee" stroke-width="0.9" stroke-linecap="round" />
<polygon points="69.0,29.1 58.5,32.8 72.1,42.4" fill="#83909f" stroke="#83909f" stroke-width="0.6" />
<line x1="69.0" y1="29.1" x2="58.5" y2="32.8" stroke="#e6e9ee" stroke-width="0.9" stroke-linecap="round" />
<polygon points="124.6,30.2 113.7,27.3 121.0,43.4" fill="#788492" stroke="#788492" stroke-width="0.6" />
<line x1="124.6" y1="30.2" x2="113.7" y2="27.3" stroke="#e6e9ee" stroke-width="0.9" stroke-linecap="round" />
<polygon points="72.1,42.4 58.5,32.8 62.9,45.7" fill="#83909f" stroke="#83909f" stroke-width="0.6" />
<line x1="72.1" y1="42.4" x2="62.9" y2="45.7" stroke="#e6e9ee" stroke-width="0.9" stroke-linecap="round" />
<polygon points="130.1,47.0 124.6,30.2 121.0,43.4" fill="#778290" stroke="#778290" stroke-width="0.6" />
<line x1="130.1" y1="47.0" x2="121.0" y2="43.4" stroke="#e6e9ee" stroke-width="0.9" stroke-linecap="round" />
<polygon points="80.0,26.6 69.0,29.1 81.8,40.3" fill="#818d9c" stroke="#818d9c" stroke-width="0.6" />
<line x1="80.0" y1="26.6" x2="69.0" y2="29.1" stroke="#e6e9ee" stroke-width="0.9" stroke-linecap="round" />
<polygon points="113.7,27.3 102.5,25.8 111.5,40.9" fill="#7a8694" stroke="#7a8694" stroke-width="0.6" />
<line x1="113.7" y1="27.3" x2="102.5" y2="25.8" stroke="#e6e9ee" stroke-width="0.9" stroke-linecap="round" />
<polygon points="91.2,25.5 80.0,26.6 91.7,39.3" fill="#7e8b99" stroke="#7e8b99" stroke-width="0.6" />
<line x1="91.2" y1="25.5" x2="80.0" y2="26.6" stroke="#e6e9ee" stroke-width="0.9" stroke-linecap="round" />
<polygon points="102.5,25.8 91.2,25.5 101.6,39.5" fill="#7c8896" stroke="#7c8896" stroke-width="0.6" />
<line x1="102.5" y1="25.8" x2="91.2" y2="25.5" stroke="#e6e9ee" stroke-width="0.9" stroke-linecap="round" />
<polygon points="81.8,40.3 69.0,29.1 72.1,42.4" fill="#818d9c" stroke="#818d9c" stroke-width="0.6" />
<line x1="81.8" y1="40.3" x2="72.1" y2="42.4" stroke="#e6e9ee" stroke-width="0.9" stroke-linecap="round" />
<polygon points="121.0,43.4 113.7,27.3 111.5,40.9" fill="#788492" stroke="#788492" stroke-width="0.6" />
<line x1="121.0" y1="43.4" x2="111.5" y2="40.9" stroke="#e6e9ee" stroke-width="0.9" stroke-linecap="round" />
<polygon points="91.7,39.3 80.0,26.6 81.8,40.3" fill="#7e8b99" stroke="#7e8b99" stroke-width="0.6" />
<line x1="91.7" y1="39.3" x2="81.8" y2="40.3" stroke="#e6e9ee" stroke-width="0.9" stroke-linecap="round" />
<polygon points="111.5,40.9 102.5,25.8 101.6,39.5" fill="#7a8694" stroke="#7a8694" stroke-width="0.6" />
<line x1="111.5" y1="40.9" x2="101.6" y2="39.5" stroke="#e6e9ee" stroke-width="0.9" stroke-linecap="round" />
<polygon points="101.6,39.5 91.2,25.5 91.7,39.3" fill="#7c8896" stroke="#7c8896" stroke-width="0.6" />
<line x1="101.6" y1="39.5" x2="91.7" y2="39.3" stroke="#e6e9ee" stroke-width="0.9" stroke-linecap="round" />
</svg>